<svg width="24" height="24" viewBox="0 0 53 53" fill="none" xmlns="http://www.w3.org/2000/svg">
<path d="M38 45.5H31.5C31.5 45.5 30.1406 48.3594 29.5 49C28.8594 49.6406 26 50 25.5 49C25 48 24.5 43.5 24.5 43.5L31.5 45.5H38V43.5L50.5 43.5V48C50.4632 49.3453 49.8806 49.8204 48.5 50.5H39.5C38.369 49.9409 37.8807 49.5159 38 48V45.5Z" fill="black"/>
<path d="M9.00001 15.5C5.41262 15.3671 2.50511 12.5898 2.50001 8.99999C2.4947 5.26952 5.77208 2.36192 9.50001 2.49999C13.0874 2.63286 15.9949 5.41014 16 8.99999C16.0053 12.7305 12.7279 15.6381 9.00001 15.5Z" fill="black"/>
<path d="M27 12.5H23.5C23.5 12.5 24.5 13.5 25.5 13.5C26.5 13.5 27 12.5 27 12.5Z" fill="black"/>
<path d="M25.5 28L33 14L37.5 16C33.3995 22.6389 29 32.5 27 33C25 33.5 12.5 28.5 12.5 28.5C12.5 28.5 10 27.6667 8 29C6.79567 29.8029 5.65836 31.7111 7 33.5C8.5 35.5 17.5 37 17.5 37L19 49H6.5C6.5 49 3 32 3 29C3 26 4.5 24.5 7 23.5C9.5 22.5 10.6573 23.0301 13 23.5L25.5 28Z" fill="black"/>
<path d="M38 43.5L38 41.5L36 41.5V43.5H38ZM50.5 43.5H52.5V41.5L50.5 41.5L50.5 43.5ZM50.5 48L52.4993 48.0548C52.4998 48.0365 52.5 48.0182 52.5 48L50.5 48ZM48.5 50.5V52.5C48.8063 52.5 49.1085 52.4296 49.3833 52.2944L48.5 50.5ZM39.5 50.5L38.6137 52.2929C38.8893 52.4291 39.1926 52.5 39.5 52.5V50.5ZM38 48L39.9938 48.157C39.9979 48.1047 40 48.0524 40 48H38ZM38.5 37C38.5 38.1046 39.3954 39 40.5 39C41.6046 39 42.5 38.1046 42.5 37H38.5ZM45.5 28C45.5 26.8954 44.6046 26 43.5 26C42.3954 26 41.5 26.8954 41.5 28H45.5ZM45.5 37C45.5 38.1046 46.3954 39 47.5 39C48.6046 39 49.5 38.1046 49.5 37H45.5ZM52 28C52 26.8954 51.1046 26 50 26C48.8954 26 48 26.8954 48 28H52ZM2.50001 8.99999L4.5 8.99715L2.50001 8.99999ZM9.00001 15.5L8.92598 17.4986L8.92598 17.4986L9.00001 15.5ZM16 8.99999L18 8.99715L18 8.99715L16 8.99999ZM9.50001 2.49999L9.42598 4.49862L9.50001 2.49999ZM23.5 12.5V10.5C22.6911 10.5 21.9618 10.9873 21.6522 11.7346C21.3427 12.482 21.5138 13.3422 22.0858 13.9142L23.5 12.5ZM40 14.5C41.1046 14.5 42 13.6046 42 12.5C42 11.3954 41.1046 10.5 40 10.5V14.5ZM33 14L33.8123 12.1724C32.855 11.7469 31.7317 12.1322 31.237 13.0555L33 14ZM25.5 28L24.8226 29.8818C25.7559 30.2178 26.7945 29.8189 27.263 28.9444L25.5 28ZM13 23.5L13.6774 21.6182C13.5848 21.5849 13.4899 21.5584 13.3934 21.539L13 23.5ZM6.5 49L4.54109 49.4033L4.86982 51H6.5V49ZM19 49V51H21.2656L20.9846 48.7519L19 49ZM17.5 37L19.4846 36.7519C19.3748 35.8741 18.7014 35.1726 17.8288 35.0272L17.5 37ZM8 29L9.1094 30.6641L9.1094 30.6641L8 29ZM12.5 28.5L13.2428 26.643C13.2064 26.6285 13.1696 26.615 13.1325 26.6026L12.5 28.5ZM37.5 16L39.2016 17.051C39.505 16.5597 39.5813 15.9613 39.4109 15.4096C39.2405 14.858 38.8399 14.4069 38.3123 14.1724L37.5 16ZM24.5 43.5L25.0494 41.5769L22.183 40.758L22.5122 43.7208L24.5 43.5ZM31.5 47.5H38V43.5H31.5V47.5ZM40 45.5V43.5H36V45.5H40ZM38 45.5L50.5 45.5L50.5 41.5L38 41.5L38 45.5ZM48.5 43.5V48H52.5V43.5H48.5ZM48.5008 47.9452C48.4953 48.1452 48.4714 48.2222 48.4686 48.2307C48.4677 48.2334 48.4703 48.2252 48.4781 48.2116C48.4816 48.2054 48.4852 48.1999 48.4884 48.1954C48.4899 48.1932 48.4912 48.1915 48.4922 48.1903C48.4931 48.1891 48.4936 48.1885 48.4936 48.1886C48.4929 48.1894 48.4513 48.237 48.3042 48.3321C48.1525 48.4301 47.9388 48.547 47.6167 48.7056L49.3833 52.2944C50.0689 51.9569 50.8993 51.5191 51.5142 50.8107C52.2263 49.9904 52.4723 49.0398 52.4993 48.0548L48.5008 47.9452ZM48.5 48.5H39.5V52.5H48.5V48.5ZM40.3863 48.7071C40.1285 48.5797 39.9951 48.5018 39.919 48.4485C39.8555 48.404 39.8876 48.4145 39.9352 48.4844C39.9882 48.5625 39.9975 48.6207 39.9939 48.6004C39.9869 48.5611 39.9721 48.4325 39.9938 48.157L36.0062 47.843C35.9313 48.7938 36.007 49.821 36.6271 50.7331C37.2001 51.576 38.0513 52.0149 38.6137 52.2929L40.3863 48.7071ZM40 48V45.5H36V48H40ZM42.5 37V34.5H38.5V37H42.5ZM42.5 34.5C42.5 34.8667 42.3679 35.0919 42.3503 35.1218C42.3265 35.162 42.3332 35.1396 42.4207 35.0474C42.6042 34.8537 42.8784 34.6214 43.2804 34.2864C43.6284 33.9964 44.1042 33.6037 44.4832 33.2036C44.677 32.999 44.9046 32.7323 45.0925 32.4148C45.2742 32.1076 45.5 31.6167 45.5 31H41.5C41.5 30.6332 41.6321 30.408 41.6497 30.3782C41.6735 30.338 41.6668 30.3603 41.5794 30.4526C41.3959 30.6463 41.1216 30.8786 40.7196 31.2135C40.3716 31.5036 39.8959 31.8963 39.5169 32.2964C39.323 32.501 39.0954 32.7677 38.9075 33.0852C38.7258 33.3924 38.5 33.8832 38.5 34.5H42.5ZM45.5 31V28H41.5V31H45.5ZM49.5 37V34.5H45.5V37H49.5ZM49.5 34.5C49.5 34.8391 49.4056 35.0751 49.3857 35.1249C49.3544 35.2034 49.3293 35.244 49.335 35.2343C49.3461 35.2152 49.3906 35.1458 49.4906 35.0125C49.6876 34.7498 49.9632 34.4183 50.2864 34.0304C50.5882 33.6683 50.9376 33.2498 51.2094 32.8875C51.3438 32.7083 51.4945 32.4965 51.6201 32.2812C51.6829 32.1737 51.7616 32.0276 51.8296 31.8573C51.886 31.7157 52 31.4016 52 31H48C48 30.6609 48.0944 30.4249 48.1143 30.3751C48.1456 30.2966 48.1707 30.256 48.165 30.2657C48.1539 30.2847 48.1094 30.3542 48.0094 30.4875C47.8124 30.7502 47.5369 31.0817 47.2136 31.4696C46.9119 31.8317 46.5624 32.2502 46.2906 32.6125C46.1563 32.7917 46.0055 33.0035 45.8799 33.2188C45.8172 33.3263 45.7384 33.4724 45.6704 33.6427C45.614 33.7842 45.5 34.0984 45.5 34.5H49.5ZM52 31V28H48V31H52ZM0.500008 9.00284C0.506772 13.7578 4.35743 17.3294 8.92598 17.4986L9.07403 13.5014C6.4678 13.4048 4.50345 11.4219 4.5 8.99715L0.500008 9.00284ZM8.92598 17.4986C13.6853 17.6749 18.0071 13.9624 18 8.99715L14 9.00284C14.0036 11.4985 11.7706 13.6012 9.07403 13.5014L8.92598 17.4986ZM18 8.99715C17.9932 4.24217 14.1426 0.670566 9.57403 0.501361L9.42598 4.49862C12.0322 4.59515 13.9966 6.57812 14 9.00284L18 8.99715ZM9.57403 0.501361C4.81474 0.325091 0.492945 4.03758 0.500008 9.00284L4.5 8.99715C4.49645 6.50146 6.72943 4.39875 9.42598 4.49862L9.57403 0.501361ZM23.5 14.5H27V10.5H23.5V14.5ZM27 14.5H40V10.5H27V14.5ZM27 12.5C25.2111 11.6056 25.2115 11.6049 25.2118 11.6042C25.212 11.6039 25.2123 11.6033 25.2125 11.6028C25.213 11.6019 25.2134 11.601 25.2139 11.6001C25.2148 11.5984 25.2156 11.5966 25.2165 11.595C25.2182 11.5917 25.2198 11.5885 25.2213 11.5856C25.2243 11.5797 25.227 11.5745 25.2294 11.57C25.2342 11.5611 25.2377 11.5548 25.2401 11.5507C25.2446 11.5427 25.2452 11.5423 25.2421 11.5468C25.2339 11.5593 25.2214 11.5752 25.2108 11.5858C25.1788 11.6178 25.2825 11.5 25.5 11.5V15.5C26.7175 15.5 27.5712 14.8822 28.0392 14.4142C28.2786 14.1748 28.4536 13.9407 28.5704 13.7656C28.6298 13.6764 28.6773 13.5979 28.713 13.5352C28.731 13.5038 28.7463 13.476 28.7588 13.4524C28.7651 13.4406 28.7708 13.4298 28.7758 13.4201C28.7783 13.4153 28.7806 13.4107 28.7828 13.4064C28.7839 13.4043 28.7849 13.4022 28.7859 13.4002C28.7864 13.3992 28.7869 13.3982 28.7874 13.3973C28.7877 13.3968 28.788 13.3961 28.7881 13.3958C28.7885 13.3951 28.7889 13.3944 27 12.5ZM25.5 11.5C25.6012 11.5 25.5098 11.5195 25.2344 11.3359C25.1292 11.2658 25.0376 11.1927 24.9735 11.1377C24.9424 11.1111 24.9205 11.0911 24.9096 11.0808C24.9042 11.0758 24.9017 11.0734 24.9023 11.074C24.9027 11.0743 24.9038 11.0754 24.9058 11.0774C24.9067 11.0783 24.9079 11.0795 24.9093 11.0809C24.91 11.0816 24.9108 11.0824 24.9116 11.0832C24.912 11.0836 24.9124 11.084 24.9129 11.0844C24.9131 11.0846 24.9134 11.085 24.9135 11.0851C24.9139 11.0854 24.9142 11.0858 23.5 12.5C22.0858 13.9142 22.0861 13.9145 22.0865 13.9149C22.0866 13.915 22.087 13.9154 22.0872 13.9156C22.0877 13.9161 22.0882 13.9166 22.0888 13.9172C22.0898 13.9182 22.0909 13.9193 22.0921 13.9205C22.0945 13.9229 22.0971 13.9255 22.1 13.9283C22.1059 13.9341 22.1127 13.9408 22.1206 13.9484C22.1364 13.9637 22.1564 13.9828 22.1803 14.0051C22.2279 14.0495 22.292 14.1076 22.3703 14.1747C22.5249 14.3072 22.7458 14.4842 23.0156 14.6641C23.4902 14.9805 24.3988 15.5 25.5 15.5V11.5ZM31.237 13.0555L23.737 27.0555L27.263 28.9444L34.763 14.9444L31.237 13.0555ZM26.1774 26.1182L13.6774 21.6182L12.3226 25.3818L24.8226 29.8818L26.1774 26.1182ZM13.3934 21.539C12.4331 21.3464 11.2648 21.0326 10.2067 20.9542C8.97297 20.8629 7.75456 21.0441 6.25722 21.643L7.74278 25.3569C8.74544 24.9559 9.35568 24.9022 9.91127 24.9433C10.6425 24.9975 11.2242 25.1836 12.6066 25.4609L13.3934 21.539ZM6.25722 21.643C4.83513 22.2119 3.47827 23.0064 2.48986 24.2643C1.47288 25.5587 1 27.1452 1 29H5C5 27.8548 5.27712 27.1913 5.63514 26.7356C6.02173 26.2436 6.66487 25.7881 7.74278 25.3569L6.25722 21.643ZM1 29C1 29.9455 1.25277 31.7457 1.57286 33.712C1.905 35.7522 2.34611 38.1777 2.78486 40.4968C3.22406 42.8183 3.66299 45.0442 3.99196 46.6891C4.1565 47.5118 4.29364 48.1897 4.38971 48.6621C4.43774 48.8984 4.47552 49.0833 4.50131 49.2094C4.51421 49.2724 4.52412 49.3207 4.53082 49.3533C4.53417 49.3697 4.53672 49.3821 4.53844 49.3904C4.5393 49.3946 4.53995 49.3978 4.54039 49.3999C4.54061 49.401 4.54078 49.4018 4.5409 49.4024C4.54096 49.4027 4.541 49.4029 4.54103 49.403C4.54107 49.4032 4.54109 49.4033 6.5 49C8.45891 48.5967 8.45891 48.5966 8.45889 48.5966C8.45886 48.5964 8.45883 48.5963 8.45878 48.596C8.45868 48.5956 8.45853 48.5948 8.45833 48.5938C8.45793 48.5919 8.45731 48.5889 8.45649 48.5849C8.45484 48.5769 8.45237 48.5649 8.4491 48.5489C8.44255 48.517 8.43281 48.4695 8.42007 48.4073C8.3946 48.2828 8.35718 48.0996 8.30951 47.8652C8.21417 47.3963 8.07788 46.7226 7.91429 45.9046C7.58701 44.2682 7.15094 42.0567 6.71514 39.7532C6.27889 37.4473 5.845 35.0602 5.52089 33.0693C5.18473 31.0043 5 29.5544 5 29H1ZM6.5 51H19V47H6.5V51ZM20.9846 48.7519L19.4846 36.7519L15.5154 37.2481L17.0154 49.2481L20.9846 48.7519ZM17.5 37C17.8288 35.0272 17.8289 35.0272 17.8291 35.0272C17.8291 35.0272 17.8291 35.0273 17.8291 35.0273C17.8291 35.0272 17.8289 35.0272 17.8286 35.0272C17.828 35.0271 17.8269 35.0269 17.8252 35.0266C17.8219 35.026 17.8164 35.0251 17.8089 35.0238C17.7939 35.0213 17.7707 35.0173 17.7397 35.012C17.6778 35.0012 17.585 34.985 17.4654 34.9634C17.2261 34.9202 16.88 34.8559 16.4591 34.7725C15.6149 34.6052 14.4812 34.3632 13.3093 34.0627C12.1273 33.7596 10.9557 33.4095 10.0162 33.0337C9.54625 32.8457 9.1752 32.6673 8.90639 32.507C8.61231 32.3315 8.56144 32.2486 8.6 32.3L5.4 34.7C5.81356 35.2514 6.37206 35.6528 6.85728 35.9422C7.36777 36.2467 7.94594 36.5137 8.53066 36.7476C9.70054 37.2155 11.0602 37.6154 12.3157 37.9373C13.5813 38.2618 14.7913 38.5198 15.6815 38.6962C16.1278 38.7847 16.4966 38.8532 16.7553 38.8999C16.8847 38.9232 16.9868 38.9411 17.0574 38.9533C17.0927 38.9595 17.1202 38.9642 17.1393 38.9674C17.1489 38.969 17.1564 38.9703 17.1617 38.9712C17.1644 38.9716 17.1665 38.972 17.1681 38.9723C17.1689 38.9724 17.1695 38.9725 17.1701 38.9726C17.1703 38.9726 17.1706 38.9727 17.1707 38.9727C17.171 38.9727 17.1712 38.9728 17.5 37ZM8.6 32.3C8.45501 32.1067 8.41394 31.9644 8.40082 31.8725C8.38677 31.774 8.39459 31.6567 8.44252 31.513C8.55095 31.1879 8.82672 30.8525 9.1094 30.6641L6.8906 27.3359C5.96895 27.9503 5.0739 28.9705 4.648 30.2475C4.1916 31.6159 4.3016 33.2354 5.4 34.7L8.6 32.3ZM9.1094 30.6641C9.6243 30.3208 10.2693 30.2175 10.9049 30.2477C11.2101 30.2623 11.4739 30.3063 11.6565 30.3457C11.7464 30.3651 11.813 30.3825 11.8507 30.3931C11.8695 30.3983 11.8807 30.4017 11.8839 30.4027C11.8854 30.4032 11.8849 30.403 11.8822 30.4022C11.8809 30.4017 11.879 30.4011 11.8765 30.4003C11.8753 30.3999 11.874 30.3995 11.8725 30.399C11.8717 30.3987 11.8709 30.3985 11.8701 30.3982C11.8697 30.3981 11.8691 30.3979 11.8689 30.3978C11.8682 30.3976 11.8675 30.3974 12.5 28.5C13.1325 26.6026 13.1318 26.6024 13.1311 26.6022C13.1308 26.6021 13.1301 26.6018 13.1297 26.6017C13.1287 26.6014 13.1277 26.601 13.1266 26.6007C13.1245 26.6 13.1223 26.5992 13.1198 26.5985C13.115 26.5969 13.1095 26.5951 13.1033 26.5931C13.0911 26.5892 13.0763 26.5845 13.059 26.5792C13.0245 26.5686 12.9802 26.5554 12.9266 26.5405C12.8198 26.5107 12.6754 26.4735 12.4998 26.4356C12.1511 26.3604 11.6649 26.2794 11.0951 26.2523C9.9807 26.1992 8.3757 26.3458 6.8906 27.3359L9.1094 30.6641ZM12.5 28.5C11.7572 30.3569 11.7573 30.357 11.7575 30.3571C11.7576 30.3571 11.7579 30.3572 11.7581 30.3573C11.7586 30.3575 11.7593 30.3578 11.7602 30.3581C11.7619 30.3588 11.7644 30.3598 11.7676 30.3611C11.7741 30.3637 11.7835 30.3674 11.7958 30.3723C11.8205 30.3821 11.8566 30.3965 11.9036 30.4152C11.9976 30.4524 12.135 30.5067 12.31 30.5755C12.6601 30.7129 13.1614 30.9083 13.7689 31.141C14.9824 31.606 16.6257 32.2223 18.3362 32.8241C20.0397 33.4235 21.8412 34.0197 23.3618 34.4366C24.119 34.6442 24.845 34.8181 25.4739 34.923C26.0018 35.0109 26.7899 35.1141 27.4851 34.9403L26.5149 31.0597C26.7101 31.0109 26.6701 31.0672 26.1315 30.9774C25.6941 30.9045 25.1154 30.7698 24.4195 30.579C23.0338 30.199 21.3353 29.639 19.6638 29.0509C17.9993 28.4652 16.3926 27.8627 15.1999 27.4058C14.6042 27.1776 14.1133 26.9862 13.772 26.8522C13.6014 26.7852 13.4682 26.7326 13.3781 26.6969C13.3331 26.679 13.2988 26.6654 13.276 26.6563C13.2646 26.6518 13.2561 26.6483 13.2505 26.6461C13.2477 26.645 13.2457 26.6442 13.2444 26.6437C13.2438 26.6434 13.2433 26.6432 13.243 26.6431C13.2429 26.6431 13.2428 26.6431 13.2428 26.643C13.2427 26.643 13.2428 26.643 12.5 28.5ZM27.4851 34.9403C28.3062 34.735 28.9224 34.1736 29.2946 33.7889C29.7237 33.3453 30.147 32.7922 30.554 32.202C31.3716 31.0169 32.2773 29.456 33.2113 27.7722C35.1206 24.33 37.1831 20.319 39.2016 17.051L35.7984 14.949C33.7164 18.3199 31.5289 22.5589 29.7134 25.832C28.7849 27.5058 27.9595 28.9188 27.2614 29.9308C26.9107 30.4392 26.6301 30.7903 26.4198 31.0076C26.1526 31.2838 26.1938 31.14 26.5149 31.0597L27.4851 34.9403ZM38.3123 14.1724L33.8123 12.1724L32.1877 15.8276L36.6877 17.8276L38.3123 14.1724ZM24.5 43.5C22.5122 43.7208 22.5122 43.7209 22.5123 43.7211C22.5123 43.7211 22.5123 43.7213 22.5123 43.7214C22.5123 43.7216 22.5124 43.722 22.5124 43.7223C22.5125 43.7231 22.5126 43.7241 22.5127 43.7255C22.513 43.7281 22.5135 43.7318 22.514 43.7365C22.5151 43.746 22.5166 43.7597 22.5186 43.7772C22.5226 43.8124 22.5285 43.8634 22.5361 43.9281C22.5512 44.0575 22.5733 44.2423 22.6014 44.4668C22.6574 44.9147 22.7377 45.5256 22.8346 46.1717C22.9309 46.8134 23.0467 47.5114 23.1749 48.1266C23.2864 48.6622 23.4534 49.3789 23.7111 49.8944L27.2889 48.1056C27.2966 48.1211 27.2136 47.9002 27.0908 47.3108C26.9846 46.8011 26.8816 46.1866 26.7904 45.5783C26.6998 44.9744 26.6239 44.3977 26.5705 43.9707C26.5439 43.7577 26.523 43.5831 26.5089 43.4625C26.5018 43.4022 26.4964 43.3555 26.4929 43.3243C26.4911 43.3087 26.4898 43.2969 26.4889 43.2893C26.4885 43.2855 26.4882 43.2828 26.488 43.281C26.4879 43.2802 26.4878 43.2796 26.4878 43.2793C26.4878 43.2791 26.4878 43.279 26.4878 43.279C26.4878 43.279 26.4878 43.279 26.4878 43.279C26.4878 43.2791 26.4878 43.2791 24.5 43.5ZM23.7111 49.8944C24.2071 50.8864 25.1375 51.2796 25.7098 51.4388C26.3341 51.6125 26.9906 51.6419 27.5519 51.6125C28.1265 51.5824 28.7155 51.4844 29.2419 51.3289C29.6882 51.197 30.3887 50.9397 30.9142 50.4142L28.0858 47.5858C28.2167 47.4549 28.3119 47.4156 28.2811 47.4307C28.2654 47.4384 28.2098 47.4628 28.1082 47.4929C27.9027 47.5536 27.6255 47.6031 27.3426 47.618C27.0465 47.6335 26.8544 47.6053 26.7819 47.5851C26.7506 47.5764 26.8029 47.5857 26.8964 47.6479C26.997 47.7147 27.1648 47.8574 27.2889 48.1056L23.7111 49.8944ZM30.9142 50.4142C31.2636 50.0648 31.5775 49.5745 31.7922 49.2211C32.0389 48.8148 32.2898 48.3583 32.5087 47.9439C32.7295 47.5259 32.9279 47.1316 33.0705 46.843C33.1421 46.6982 33.2002 46.5788 33.2408 46.4949C33.2611 46.453 33.277 46.4198 33.2881 46.3967C33.2937 46.3851 33.298 46.3761 33.301 46.3697C33.3025 46.3665 33.3038 46.364 33.3046 46.3621C33.3051 46.3612 33.3054 46.3605 33.3057 46.3599C33.3058 46.3596 33.3059 46.3594 33.306 46.3592C33.3061 46.3591 33.3061 46.359 33.3062 46.3589C33.3062 46.3588 33.3063 46.3587 31.5 45.5C29.6937 44.6413 29.6938 44.6412 29.6938 44.6411C29.6938 44.6411 29.6938 44.6411 29.6938 44.6411C29.6938 44.641 29.6938 44.641 29.6938 44.6411C29.6938 44.6412 29.6936 44.6415 29.6934 44.642C29.693 44.6429 29.6922 44.6445 29.6911 44.6467C29.689 44.6512 29.6856 44.6583 29.681 44.6678C29.6719 44.6869 29.658 44.7158 29.6399 44.7533C29.6036 44.8282 29.5505 44.9373 29.4847 45.0705C29.3524 45.3381 29.1709 45.6986 28.9718 46.0756C28.7708 46.4562 28.5616 46.8346 28.3734 47.1446C28.1529 47.5075 28.0567 47.6149 28.0858 47.5858L30.9142 50.4142ZM32.0494 43.5769L25.0494 41.5769L23.9506 45.423L30.9506 47.423L32.0494 43.5769Z" fill="black"/>
</svg>