<svg width="44" height="41" viewBox="0 0 44 41" fill="none" xmlns="http://www.w3.org/2000/svg">
<path d="M11.4444 28.6923C11.4444 28.6923 1.99995 29.2051 2 23.0513C2.00005 16.8974 3.66667 2.53846 3.66667 2.53846H19.7778C19.7778 2.53846 20.8889 16.8974 20.8889 23.0513C20.8889 29.2051 11.4444 28.6923 11.4444 28.6923ZM11.4444 28.6923V38.9487H2H20.8889M32.5556 1V18.5M32.5556 18.5C32.5556 18.5 32.5556 19.9107 32.5556 21.5128M32.5556 18.5V41C32.5556 41 32.5556 29.123 32.5556 21.5128M32.5556 18.5H29.7778V21.5128C29.7778 21.5128 31.4708 21.5128 32.5556 21.5128M32.5556 18.5H40.3333M32.5556 21.5128C32.5556 21.5128 36.4444 21.5128 38.1111 21.5128C39.7778 21.5128 42 17.9231 42 15.8718C42 13.8205 42 1 42 1" stroke="black" stroke-width="4"/>
</svg>
