<svg width="19" height="18" viewBox="0 0 19 18" fill="none" xmlns="http://www.w3.org/2000/svg">
<path d="M13.499 15.5C12.9794 16.4736 12.5428 16.8111 11.6506 16.9745C11.5501 16.9929 11.4478 17 11.3457 17H2.99902C1.89445 17 0.999023 16.1066 0.999023 15.0021C0.999023 12.2476 0.999023 7.15292 0.999023 2.99845C0.999023 1.89388 1.89489 1 2.99946 1C5.84978 1 8.19701 1 11.3029 1C11.4328 1 11.5639 1.01171 11.6906 1.04061C12.8427 1.30362 13.2601 1.76839 13.499 3.00013M5.49902 9C10.1853 9 17.499 9 17.499 9M17.499 9C17.499 9 15.0611 6.86684 13.499 5.5M17.499 9L13.499 12.5" stroke="black" stroke-width="2" stroke-linecap="round" stroke-linejoin="round"/>
</svg>
