<svg width="48" height="30" viewBox="0 0 48 30" fill="none" xmlns="http://www.w3.org/2000/svg">
<path d="M6.99985 11C5.61914 9.61928 5.61914 7.38071 6.99985 5.99999C8.38057 4.61928 10.6191 4.61928 11.9999 5.99999C13.3806 7.38071 13.3806 9.61928 11.9999 11C10.6191 12.3807 8.38057 12.3807 6.99985 11Z" fill="black"/>
<path d="M35.9999 11C34.6191 9.61928 34.6191 7.38071 35.9999 5.99999C37.3806 4.61928 39.6191 4.61928 40.9999 5.99999C42.3806 7.38071 42.3806 9.61928 40.9999 11C39.6191 12.3807 37.3806 12.3807 35.9999 11Z" fill="black"/>
<path d="M19.9999 11C17.7907 8.79085 17.7907 5.20913 19.9999 2.99999C22.209 0.790855 25.7907 0.790855 27.9999 2.99999C30.209 5.20913 30.209 8.79085 27.9999 11C25.7907 13.2091 22.209 13.2091 19.9999 11Z" fill="black"/>
<path d="M6.99996 25H2.49996C2.49996 25 1.7965 24.4659 1.49996 24C1.36999 23.7958 1.08125 21.3376 1.49996 20.5C1.91867 19.6624 3.40644 18.5312 4.99996 18C6.5 17.5 10 17.5 10 17.5C10 17.5 7.8922 19.4116 7.49996 20C6.5 21.5 6.99996 25 6.99996 25Z" fill="black"/>
<path d="M41.2815 25H45.7815C45.7815 25 46.485 24.4659 46.7815 24C46.9115 23.7958 47.2002 21.3376 46.7815 20.5C46.3628 19.6624 44.875 18.5312 43.2815 18C41.7815 17.5 38.2815 17.5 38.2815 17.5C38.2815 17.5 40.3893 19.4116 40.7815 20C41.7815 21.5 41.2815 25 41.2815 25Z" fill="black"/>
<path d="M34.5 29H13.5C12.8035 28.8908 12.4322 28.7526 12 27.5V23.5C12 21 15.2248 18.8638 19 18C23.1004 17.3628 25.4 17.456 29.5 18C33.971 19.3048 35.2929 20.5532 36 23.5V27.5C35.8823 28.4697 35.5353 28.7811 34.5 29Z" fill="black"/>
<path d="M6.99985 5.99999L7.35341 6.35355L7.35341 6.35355L6.99985 5.99999ZM6.99985 11L6.6463 11.3535L6.6463 11.3535L6.99985 11ZM35.9999 5.99999L35.6463 5.64644L35.6463 5.64644L35.9999 5.99999ZM35.9999 11L35.6463 11.3535L35.6463 11.3535L35.9999 11ZM40.9999 5.99999L40.6463 6.35355L40.6463 6.35355L40.9999 5.99999ZM27.9999 2.99999L27.6463 3.35355L27.6463 3.35355L27.9999 2.99999ZM2.49996 25L2.19762 25.3982L2.33166 25.5H2.49996V25ZM6.99996 25V25.5H7.57646L7.49494 24.9293L6.99996 25ZM7.49996 20L7.08393 19.7227L7.08393 19.7227L7.49996 20ZM10 17.5L10.3359 17.8704L11.2956 17L10 17L10 17.5ZM4.99996 18L4.84185 17.5257L4.99996 18ZM1.49996 24L1.92177 23.7315L1.92177 23.7315L1.49996 24ZM45.7815 25V25.5H45.9498L46.0838 25.3982L45.7815 25ZM41.2815 25L40.7865 24.9293L40.705 25.5H41.2815V25ZM40.7815 20L41.1975 19.7227L41.1975 19.7227L40.7815 20ZM38.2815 17.5L38.2815 17L36.9859 17L37.9456 17.8704L38.2815 17.5ZM43.2815 18L43.4396 17.5257L43.2815 18ZM46.7815 24L46.3597 23.7315L46.3597 23.7315L46.7815 24ZM13.5 29L13.4225 29.494L13.461 29.5H13.5V29ZM34.5 29V29.5H34.5523L34.6034 29.4892L34.5 29ZM36 27.5L36.4963 27.5602L36.5 27.5302V27.5H36ZM36 23.5H36.5V23.4409L36.4862 23.3833L36 23.5ZM29.5 18L29.64 17.52L29.6035 17.5094L29.5657 17.5043L29.5 18ZM19 18L18.9232 17.5059L18.9057 17.5086L18.8884 17.5126L19 18ZM12 23.5L11.5 23.5V23.5H12ZM12 27.5H11.5V27.5838L11.5273 27.6631L12 27.5ZM6.6463 5.64644C5.07033 7.22241 5.07033 9.77757 6.6463 11.3535L7.35341 10.6464C6.16796 9.46099 6.16796 7.539 7.35341 6.35355L6.6463 5.64644ZM6.6463 11.3535C8.22228 12.9295 10.7774 12.9295 12.3534 11.3535L11.6463 10.6464C10.4609 11.8319 8.53886 11.8319 7.35341 10.6464L6.6463 11.3535ZM12.3534 11.3535C13.9294 9.77757 13.9294 7.22241 12.3534 5.64644L11.6463 6.35355C12.8318 7.539 12.8318 9.46099 11.6463 10.6464L12.3534 11.3535ZM12.3534 5.64644C10.7774 4.07047 8.22228 4.07047 6.6463 5.64644L7.35341 6.35355C8.53886 5.1681 10.4609 5.1681 11.6463 6.35355L12.3534 5.64644ZM35.6463 5.64644C34.0703 7.22241 34.0703 9.77757 35.6463 11.3535L36.3534 10.6464C35.168 9.46099 35.168 7.539 36.3534 6.35355L35.6463 5.64644ZM35.6463 11.3535C37.2223 12.9295 39.7774 12.9295 41.3534 11.3535L40.6463 10.6464C39.4609 11.8319 37.5389 11.8319 36.3534 10.6464L35.6463 11.3535ZM41.3534 11.3535C42.9294 9.77757 42.9294 7.22241 41.3534 5.64644L40.6463 6.35355C41.8318 7.539 41.8318 9.46099 40.6463 10.6464L41.3534 11.3535ZM41.3534 5.64644C39.7774 4.07047 37.2223 4.07047 35.6463 5.64644L36.3534 6.35355C37.5389 5.1681 39.4609 5.1681 40.6463 6.35355L41.3534 5.64644ZM19.6463 2.64644C17.2419 5.05084 17.2419 8.94915 19.6463 11.3535L20.3534 10.6464C18.3395 8.63256 18.3395 5.36742 20.3534 3.35355L19.6463 2.64644ZM19.6463 11.3535C22.0507 13.7579 25.949 13.7579 28.3534 11.3535L27.6463 10.6464C25.6324 12.6603 22.3673 12.6603 20.3534 10.6464L19.6463 11.3535ZM28.3534 11.3535C30.7578 8.94915 30.7578 5.05084 28.3534 2.64644L27.6463 3.35355C29.6602 5.36742 29.6602 8.63256 27.6463 10.6464L28.3534 11.3535ZM28.3534 2.64644C25.949 0.242039 22.0507 0.242039 19.6463 2.64644L20.3534 3.35355C22.3673 1.33967 25.6324 1.33967 27.6463 3.35355L28.3534 2.64644ZM2.49996 25.5H6.99996V24.5H2.49996V25.5ZM6.99996 25C7.49494 24.9293 7.49495 24.9294 7.49495 24.9294C7.49495 24.9294 7.49496 24.9295 7.49496 24.9295C7.49496 24.9295 7.49495 24.9294 7.49494 24.9293C7.49491 24.9291 7.49485 24.9287 7.49477 24.9281C7.49459 24.9268 7.49431 24.9248 7.49391 24.9219C7.49312 24.9162 7.49191 24.9072 7.49033 24.8952C7.48716 24.8711 7.48254 24.8348 7.47694 24.7877C7.46573 24.6934 7.45064 24.5557 7.4355 24.3854C7.40517 24.0441 7.37497 23.5751 7.37498 23.0625C7.37498 22.5482 7.40542 22.0009 7.49258 21.4997C7.58091 20.9918 7.72117 20.5696 7.91599 20.2773L7.08393 19.7227C6.77877 20.1804 6.60654 20.7582 6.50737 21.3284C6.40704 21.9053 6.37498 22.5143 6.37498 23.0625C6.37497 23.6124 6.40727 24.1121 6.43943 24.4739C6.45554 24.6552 6.47169 24.8027 6.48392 24.9057C6.49004 24.9571 6.49518 24.9975 6.49885 25.0255C6.50069 25.0395 6.50216 25.0503 6.5032 25.0579C6.50373 25.0617 6.50414 25.0647 6.50444 25.0668C6.50459 25.0679 6.50471 25.0688 6.5048 25.0694C6.50485 25.0697 6.50489 25.07 6.50492 25.0702C6.50493 25.0703 6.50495 25.0704 6.50496 25.0705C6.50497 25.0706 6.50499 25.0707 6.99996 25ZM7.91599 20.2773C7.9855 20.1731 8.15989 19.9736 8.41588 19.7083C8.6621 19.4532 8.95702 19.1642 9.24285 18.8905C9.52813 18.6174 9.80163 18.3621 10.004 18.175C10.1051 18.0815 10.1883 18.0051 10.2461 17.9522C10.275 17.9258 10.2976 17.9052 10.3129 17.8913C10.3205 17.8844 10.3263 17.8791 10.3302 17.8755C10.3321 17.8738 10.3336 17.8725 10.3345 17.8716C10.335 17.8712 10.3354 17.8708 10.3356 17.8706C10.3357 17.8705 10.3358 17.8705 10.3358 17.8704C10.3359 17.8704 10.3359 17.8704 10.3359 17.8704C10.3359 17.8704 10.3359 17.8704 10 17.5C9.6641 17.1296 9.66408 17.1296 9.66406 17.1297C9.66404 17.1297 9.664 17.1297 9.66396 17.1298C9.66388 17.1298 9.66377 17.1299 9.66363 17.1301C9.66335 17.1303 9.66293 17.1307 9.6624 17.1312C9.66132 17.1322 9.65975 17.1336 9.65768 17.1355C9.65356 17.1392 9.64749 17.1447 9.63959 17.1519C9.6238 17.1663 9.60069 17.1874 9.5712 17.2144C9.51221 17.2683 9.42767 17.3459 9.32505 17.4408C9.11995 17.6305 8.84199 17.8899 8.55129 18.1682C8.26113 18.446 7.95557 18.7452 7.69626 19.014C7.44672 19.2726 7.21054 19.5327 7.08393 19.7227L7.91599 20.2773ZM10 17.5C10 17 9.99995 17 9.99989 17C9.99985 17 9.99978 17 9.9997 17C9.99955 17 9.99934 17 9.99908 17C9.99856 17 9.99783 17 9.99689 17C9.99501 17 9.9923 17 9.98877 17C9.98171 17 9.97139 17.0001 9.95798 17.0001C9.93116 17.0003 9.89196 17.0005 9.84173 17.001C9.74129 17.002 9.59664 17.004 9.41858 17.0079C9.06273 17.0158 8.57203 17.0317 8.03313 17.0634C6.97673 17.1255 5.66328 17.2519 4.84185 17.5257L5.15807 18.4743C5.83668 18.2481 7.02325 18.1245 8.09186 18.0616C8.61546 18.0308 9.09352 18.0154 9.4408 18.0077C9.6143 18.0038 9.75481 18.0019 9.85163 18.001C9.90003 18.0005 9.93749 18.0002 9.96267 18.0001C9.97526 18.0001 9.98478 18 9.99106 18C9.9942 18 9.99653 18 9.99802 18C9.99877 18 9.99931 18 9.99964 18C9.99981 18 9.99992 18 9.99998 18C10 18 10 18 10 18C10 18 10 18 10 17.5ZM4.84185 17.5257C3.99203 17.8089 3.17625 18.2495 2.51512 18.7309C1.86664 19.203 1.31477 19.7522 1.05273 20.2764L1.94719 20.7236C2.10386 20.4102 2.50523 19.975 3.1037 19.5393C3.68951 19.1128 4.41438 18.7222 5.15807 18.4743L4.84185 17.5257ZM1.05273 20.2764C0.904099 20.5737 0.837886 20.9628 0.806828 21.3293C0.774584 21.7098 0.776077 22.1255 0.794793 22.5117C0.813558 22.8989 0.850162 23.267 0.891252 23.5553C0.911715 23.6989 0.934079 23.8283 0.95723 23.9331C0.96872 23.9852 0.981712 24.0372 0.996501 24.0847C1.00769 24.1207 1.03221 24.1963 1.07815 24.2685L1.92177 23.7315C1.95147 23.7782 1.9585 23.8106 1.95138 23.7877C1.94787 23.7764 1.94174 23.7539 1.93371 23.7175C1.91783 23.6456 1.89959 23.5429 1.88125 23.4142C1.84473 23.158 1.81095 22.8209 1.79362 22.4633C1.77625 22.1047 1.77594 21.7361 1.80326 21.4137C1.83176 21.0774 1.88647 20.845 1.94719 20.7236L1.05273 20.2764ZM1.07815 24.2685C1.26489 24.5619 1.55799 24.8494 1.77657 25.0463C1.89073 25.1491 1.99461 25.236 2.07011 25.2973C2.10797 25.3281 2.13898 25.3526 2.16092 25.3698C2.17189 25.3784 2.18062 25.3852 2.18682 25.39C2.18993 25.3923 2.1924 25.3942 2.19421 25.3956C2.19511 25.3963 2.19585 25.3969 2.19642 25.3973C2.19671 25.3975 2.19695 25.3977 2.19715 25.3979C2.19725 25.3979 2.19734 25.398 2.19742 25.3981C2.19745 25.3981 2.1975 25.3981 2.19752 25.3982C2.19757 25.3982 2.19762 25.3982 2.49996 25C2.80231 24.6018 2.80235 24.6018 2.80238 24.6018C2.80239 24.6018 2.80243 24.6019 2.80244 24.6019C2.80248 24.6019 2.8025 24.6019 2.80252 24.6019C2.80255 24.6019 2.80253 24.6019 2.80248 24.6019C2.80237 24.6018 2.80209 24.6016 2.80166 24.6013C2.80079 24.6006 2.79927 24.5994 2.79715 24.5978C2.79291 24.5945 2.78623 24.5894 2.77739 24.5825C2.7597 24.5686 2.73344 24.5478 2.70071 24.5212C2.63505 24.4679 2.54453 24.3921 2.44576 24.3032C2.23847 24.1165 2.03158 23.9041 1.92177 23.7315L1.07815 24.2685ZM45.7815 24.5H41.2815V25.5H45.7815V24.5ZM41.2815 25C41.7765 25.0707 41.7765 25.0706 41.7765 25.0705C41.7765 25.0704 41.7765 25.0703 41.7765 25.0702C41.7766 25.07 41.7766 25.0697 41.7767 25.0694C41.7767 25.0688 41.7769 25.0679 41.777 25.0668C41.7773 25.0647 41.7777 25.0617 41.7783 25.0579C41.7793 25.0503 41.7808 25.0395 41.7826 25.0255C41.7863 24.9975 41.7914 24.9571 41.7975 24.9057C41.8098 24.8027 41.8259 24.6552 41.842 24.4739C41.8742 24.1121 41.9065 23.6124 41.9065 23.0625C41.9065 22.5143 41.8744 21.9053 41.7741 21.3284C41.6749 20.7582 41.5027 20.1804 41.1975 19.7227L40.3655 20.2773C40.5603 20.5696 40.7005 20.9918 40.7889 21.4997C40.876 22.0009 40.9065 22.5482 40.9065 23.0625C40.9065 23.5751 40.8763 24.0441 40.846 24.3854C40.8308 24.5557 40.8157 24.6934 40.8045 24.7877C40.7989 24.8348 40.7943 24.8711 40.7911 24.8952C40.7896 24.9072 40.7883 24.9162 40.7875 24.9219C40.7872 24.9248 40.7869 24.9268 40.7867 24.9281C40.7866 24.9287 40.7865 24.9291 40.7865 24.9293C40.7865 24.9294 40.7865 24.9295 40.7865 24.9295C40.7865 24.9295 40.7865 24.9294 40.7865 24.9294C40.7865 24.9294 40.7865 24.9293 41.2815 25ZM41.1975 19.7227C41.0709 19.5327 40.8347 19.2726 40.5852 19.014C40.3259 18.7452 40.0203 18.446 39.7302 18.1682C39.4395 17.8899 39.1615 17.6305 38.9564 17.4408C38.8538 17.3459 38.7692 17.2683 38.7103 17.2144C38.6808 17.1874 38.6577 17.1663 38.6419 17.1519C38.634 17.1447 38.6279 17.1392 38.6238 17.1355C38.6217 17.1336 38.6201 17.1322 38.6191 17.1312C38.6185 17.1307 38.6181 17.1303 38.6178 17.1301C38.6177 17.1299 38.6176 17.1298 38.6175 17.1298C38.6175 17.1297 38.6174 17.1297 38.6174 17.1297C38.6174 17.1296 38.6174 17.1296 38.2815 17.5C37.9456 17.8704 37.9456 17.8704 37.9456 17.8704C37.9456 17.8704 37.9456 17.8704 37.9456 17.8704C37.9457 17.8705 37.9457 17.8705 37.9459 17.8706C37.9461 17.8708 37.9464 17.8712 37.9469 17.8716C37.9479 17.8725 37.9493 17.8738 37.9513 17.8755C37.9551 17.8791 37.961 17.8844 37.9686 17.8913C37.9839 17.9052 38.0064 17.9258 38.0353 17.9522C38.0931 18.0051 38.1763 18.0815 38.2775 18.175C38.4798 18.3621 38.7533 18.6174 39.0386 18.8905C39.3244 19.1642 39.6194 19.4532 39.8656 19.7083C40.1216 19.9736 40.296 20.1731 40.3655 20.2773L41.1975 19.7227ZM38.2815 17.5C38.2815 18 38.2814 18 38.2814 18C38.2814 18 38.2814 18 38.2815 18C38.2815 18 38.2817 18 38.2818 18C38.2821 18 38.2827 18 38.2834 18C38.2849 18 38.2873 18 38.2904 18C38.2967 18 38.3062 18.0001 38.3188 18.0001C38.344 18.0002 38.3814 18.0005 38.4298 18.001C38.5267 18.0019 38.6672 18.0038 38.8407 18.0077C39.1879 18.0154 39.666 18.0308 40.1896 18.0616C41.2582 18.1245 42.4448 18.2481 43.1234 18.4743L43.4396 17.5257C42.6182 17.2519 41.3047 17.1255 40.2483 17.0634C39.7094 17.0317 39.2187 17.0158 38.8629 17.0079C38.6848 17.004 38.5402 17.002 38.4397 17.001C38.3895 17.0005 38.3503 17.0003 38.3235 17.0001C38.3101 17.0001 38.2997 17 38.2927 17C38.2892 17 38.2864 17 38.2846 17C38.2836 17 38.2829 17 38.2824 17C38.2821 17 38.2819 17 38.2818 17C38.2817 17 38.2816 17 38.2816 17C38.2815 17 38.2815 17 38.2815 17.5ZM43.1234 18.4743C43.8671 18.7222 44.5919 19.1128 45.1778 19.5393C45.7762 19.975 46.1776 20.4102 46.3343 20.7236L47.2287 20.2764C46.9667 19.7522 46.4148 19.203 45.7663 18.7309C45.1052 18.2495 44.2894 17.8089 43.4396 17.5257L43.1234 18.4743ZM46.3343 20.7236C46.395 20.845 46.4497 21.0774 46.4782 21.4137C46.5055 21.7361 46.5052 22.1047 46.4878 22.4633C46.4705 22.8209 46.4367 23.158 46.4002 23.4142C46.3819 23.5429 46.3636 23.6456 46.3477 23.7175C46.3397 23.7539 46.3336 23.7764 46.3301 23.7877C46.323 23.8106 46.33 23.7782 46.3597 23.7315L47.2033 24.2685C47.2493 24.1963 47.2738 24.1207 47.285 24.0847C47.2997 24.0372 47.3127 23.9852 47.3242 23.9331C47.3474 23.8283 47.3697 23.6989 47.3902 23.5553C47.4313 23.267 47.4679 22.8989 47.4867 22.5117C47.5054 22.1255 47.5069 21.7098 47.4746 21.3293C47.4436 20.9628 47.3774 20.5737 47.2287 20.2764L46.3343 20.7236ZM46.3597 23.7315C46.2499 23.9041 46.043 24.1165 45.8357 24.3032C45.7369 24.3921 45.6464 24.4679 45.5807 24.5212C45.548 24.5478 45.5218 24.5686 45.5041 24.5825C45.4952 24.5894 45.4886 24.5945 45.4843 24.5978C45.4822 24.5994 45.4807 24.6006 45.4798 24.6013C45.4794 24.6016 45.4791 24.6018 45.479 24.6019C45.4789 24.6019 45.4789 24.6019 45.4789 24.6019C45.479 24.6019 45.479 24.6019 45.479 24.6019C45.479 24.6019 45.4791 24.6018 45.4791 24.6018C45.4791 24.6018 45.4792 24.6018 45.7815 25C46.0838 25.3982 46.0839 25.3982 46.0839 25.3982C46.084 25.3981 46.084 25.3981 46.084 25.3981C46.0841 25.398 46.0842 25.3979 46.0843 25.3979C46.0845 25.3977 46.0848 25.3975 46.085 25.3973C46.0856 25.3969 46.0863 25.3963 46.0872 25.3956C46.0891 25.3942 46.0915 25.3923 46.0946 25.39C46.1008 25.3852 46.1096 25.3784 46.1205 25.3698C46.1425 25.3526 46.1735 25.3281 46.2113 25.2973C46.2868 25.236 46.3907 25.1491 46.5049 25.0463C46.7235 24.8494 47.0166 24.5619 47.2033 24.2685L46.3597 23.7315ZM13.5 29.5H34.5V28.5H13.5V29.5ZM34.6034 29.4892C35.1378 29.3762 35.6055 29.2207 35.9442 28.8885C36.2953 28.5441 36.4324 28.0871 36.4963 27.5602L35.5036 27.4398C35.4499 27.8826 35.3546 28.0661 35.244 28.1746C35.1209 28.2952 34.8974 28.4049 34.3965 28.5108L34.6034 29.4892ZM36.5 27.5V23.5H35.5V27.5H36.5ZM36.4862 23.3833C36.1187 21.8517 35.5734 20.6921 34.4881 19.7557C33.4252 18.8386 31.8894 18.1765 29.64 17.52L29.3599 18.48C31.5815 19.1283 32.9423 19.7427 33.8348 20.5128C34.7049 21.2635 35.1742 22.2014 35.5138 23.6167L36.4862 23.3833ZM29.5657 17.5043C25.4315 16.9558 23.0822 16.8596 18.9232 17.5059L19.0767 18.4941C23.1185 17.866 25.3685 17.9562 29.4342 18.4957L29.5657 17.5043ZM18.8884 17.5126C16.9502 17.9561 15.1317 18.7302 13.7851 19.7358C12.4491 20.7336 11.5 22.0229 11.5 23.5L12.5 23.5C12.5 22.4771 13.1633 21.4483 14.3835 20.537C15.5932 19.6336 17.2746 18.9077 19.1115 18.4874L18.8884 17.5126ZM11.5 23.5V27.5H12.5V23.5H11.5ZM11.5273 27.6631C11.7502 28.3092 11.9858 28.7611 12.3215 29.055C12.672 29.3617 13.0673 29.4383 13.4225 29.494L13.5774 28.506C13.2362 28.4525 13.0977 28.4054 12.9802 28.3026C12.8481 28.1869 12.6819 27.9434 12.4726 27.3369L11.5273 27.6631Z" fill="black"/>
</svg>
