<svg width="29" height="47" viewBox="0 0 29 47" fill="none" xmlns="http://www.w3.org/2000/svg">
<path d="M2.5 3L1 2.99922L2.5 3ZM8 45L7.87878 46.4951L7.87878 46.4951L8 45ZM19.5 27L20.9992 27.0484L20.9995 27.0398L20.9997 27.0312L19.5 27ZM19 42.5L17.5008 42.4516C17.4999 42.4778 17.4998 42.5039 17.5003 42.5301L19 42.5ZM27 13.5L25.5023 13.5832L25.5023 13.5832L27 13.5ZM23.5 26.5L22.0004 26.4676L22.0004 26.4676L23.5 26.5ZM25 34.5L23.5007 34.5457L23.5007 34.5457L25 34.5ZM5 12C5 12.8284 5.67157 13.5 6.5 13.5C7.32843 13.5 8 12.8284 8 12H5ZM8.5 12C8.5 12.8284 9.17157 13.5 10 13.5C10.8284 13.5 11.5 12.8284 11.5 12H8.5ZM1 2.99922C0.999592 3.78515 0.877921 6.22697 0.751397 8.86528C0.627468 11.4495 0.5 14.2045 0.5 15.5L3.5 15.5C3.5 14.2956 3.6221 11.6333 3.74795 9.00898C3.87121 6.43871 3.99954 3.88052 4 3.00078L1 2.99922ZM0.5 15.5C0.5 17.5198 1.93608 18.7948 2.87546 19.5463C3.45784 20.0122 3.79569 20.238 4.18421 20.5732C4.55165 20.8902 4.58868 21.0095 4.57697 20.9743L7.42303 20.0257C7.16132 19.2405 6.57335 18.6723 6.14391 18.3018C5.73556 17.9495 5.10466 17.4878 4.74954 17.2037C3.81392 16.4552 3.5 15.9802 3.5 15.5L0.5 15.5ZM4.57697 20.9743C4.55115 20.8969 4.56502 20.9048 4.58406 21.0974C4.5998 21.2566 4.61326 21.4765 4.62295 21.7594C4.64227 22.3233 4.64454 23.0715 4.63294 23.9569C4.60979 25.7242 4.53239 27.9727 4.43877 30.2509C4.25388 34.7498 4 39.4603 4 40.5L7 40.5C7 39.5397 7.24612 35.0002 7.43624 30.3741C7.53011 28.0898 7.60896 25.8071 7.63268 23.9962C7.64452 23.0925 7.64289 22.29 7.62119 21.6567C7.61037 21.3409 7.59405 21.0505 7.56951 20.8023C7.54826 20.5874 7.51135 20.2906 7.42303 20.0257L4.57697 20.9743ZM4 40.5C4 41.5854 4.12907 42.9101 4.62471 44.0411C5.1465 45.2319 6.16426 46.3561 7.87878 46.4951L8.12122 43.5049C7.83197 43.4815 7.59973 43.3557 7.37247 42.837C7.11904 42.2587 7 41.4146 7 40.5L4 40.5ZM7.87878 46.4951C9.74167 46.6461 10.9594 45.4732 11.6076 44.28C12.2429 43.1103 12.5 41.6811 12.5 40.5H9.5C9.5 41.3189 9.30973 42.2251 8.97133 42.8481C8.64574 43.4475 8.3635 43.5246 8.12122 43.5049L7.87878 46.4951ZM12.5 40.5C12.5 39.4734 12.374 34.691 12.2495 30.0845C12.1238 25.4344 12 20.973 12 20.5H9C9 21.027 9.12623 25.5656 9.25055 30.1655C9.37605 34.809 9.5 39.5267 9.5 40.5H12.5ZM12 20.5C12 20.9247 11.7772 21.1402 11.8256 21.0845C11.846 21.061 11.9235 20.9848 12.1102 20.8431C12.2876 20.7084 12.5043 20.5583 12.7717 20.3751C13.0292 20.1987 13.3284 19.9951 13.6282 19.7785C14.2183 19.3523 14.9051 18.8105 15.4507 18.1538C16.0008 17.4916 16.5 16.6 16.5 15.5H13.5C13.5 15.65 13.4367 15.8834 13.1431 16.2368C12.8449 16.5958 12.4067 16.9602 11.8718 17.3465C11.6091 17.5362 11.3458 17.7154 11.076 17.9003C10.816 18.0784 10.5405 18.2682 10.2961 18.4538C10.0608 18.6324 9.78685 18.8569 9.56111 19.1167C9.36347 19.3442 9 19.8253 9 20.5H12ZM16.5 15.5C16.5 14.1589 16.239 11.3585 15.9928 8.79506C15.7361 6.12274 15.4996 3.74012 15.5 3.00075L12.5 2.99926C12.4995 3.92916 12.763 6.54653 13.0066 9.0819C13.2605 11.7262 13.5 14.3412 13.5 15.5H16.5ZM18.5 1.99999C18.5 2.47965 18.3757 8.70212 18.2503 14.8444C18.1878 17.9067 18.1253 20.9378 18.0784 23.2033C18.055 24.3361 18.0355 25.2775 18.0218 25.9356C18.015 26.2647 18.0096 26.523 18.0059 26.699C18.0041 26.787 18.0027 26.8545 18.0018 26.8999C18.0013 26.9226 18.0009 26.9398 18.0007 26.9514C18.0006 26.9571 18.0005 26.9615 18.0004 26.9644C18.0004 26.9658 18.0004 26.9669 18.0003 26.9677C18.0003 26.968 18.0003 26.9683 18.0003 26.9685C18.0003 26.9687 18.0003 26.9688 19.5 27C20.9997 27.0312 20.9997 27.0312 20.9997 27.031C20.9997 27.0308 20.9997 27.0305 20.9997 27.0301C20.9997 27.0294 20.9997 27.0283 20.9998 27.0269C20.9998 27.024 20.9999 27.0196 21 27.0138C21.0003 27.0023 21.0006 26.9851 21.0011 26.9623C21.0021 26.9169 21.0035 26.8494 21.0053 26.7614C21.009 26.5854 21.0143 26.3271 21.0212 25.9979C21.0348 25.3397 21.0544 24.3983 21.0778 23.2654C21.1247 20.9997 21.1872 17.9683 21.2497 14.9056C21.3743 8.79787 21.5 2.52034 21.5 1.99999H18.5ZM18.0008 26.9516L17.5008 42.4516L20.4992 42.5484L20.9992 27.0484L18.0008 26.9516ZM28.4977 13.4168C28.2273 8.54934 26.3256 5.10561 24.4274 2.99655C23.4888 1.95363 22.5263 1.20954 21.7276 0.78491C21.3557 0.587218 20.8949 0.391099 20.4271 0.345084C20.2096 0.323693 19.7728 0.311076 19.3325 0.561057C18.7659 0.882771 18.5 1.45717 18.5 1.99999H21.5C21.5 2.41781 21.2849 2.90237 20.8137 3.16988C20.4689 3.36566 20.1722 3.33449 20.1334 3.33068C20.0231 3.31982 20.074 3.30339 20.3193 3.43382C20.755 3.66545 21.4487 4.17136 22.1976 5.00344C23.6744 6.64438 25.2727 9.45066 25.5023 13.5832L28.4977 13.4168ZM4 3.00078C3.99962 3.73987 3.39445 3.92948 3.66176 3.79669C3.79741 3.7293 4.09246 3.62997 4.58213 3.53528C5.534 3.35123 6.86866 3.24962 8.25087 3.24941C9.63313 3.24919 10.9675 3.35038 11.9189 3.53429C12.4084 3.6289 12.7029 3.7282 12.838 3.7954C13.1035 3.9275 12.4996 3.73734 12.5 2.99926L15.5 3.00075C15.5006 1.84535 14.5375 1.29015 14.1743 1.10944C13.6806 0.863845 13.0768 0.702573 12.4883 0.588809C11.2836 0.35596 9.74313 0.249172 8.2504 0.249405C6.75762 0.249639 5.21718 0.356918 4.01259 0.589841C3.42403 0.703646 2.82051 0.864821 2.32709 1.10993C1.96533 1.28964 1.0006 1.84372 1 2.99922L4 3.00078ZM25.5023 13.5832C25.6189 15.6819 24.9233 17.3815 24.0258 19.3841C23.1525 21.3329 22.0621 23.6111 22.0004 26.4676L24.9996 26.5324C25.0461 24.3851 25.8444 22.6619 26.7635 20.611C27.6584 18.6139 28.6587 16.3153 28.4977 13.4168L25.5023 13.5832ZM17.5003 42.5301C17.5278 43.9015 18.2332 45.19 19.333 45.975C20.4778 46.7922 22.0194 47.043 23.584 46.3816L22.416 43.6184C21.8238 43.8687 21.3831 43.7525 21.0759 43.5333C20.7237 43.2818 20.5076 42.8644 20.4997 42.47L17.5003 42.5301ZM22.0004 26.4676C21.9559 28.5237 22.3663 29.817 22.7584 30.9796C23.1252 32.0673 23.4532 32.9856 23.5007 34.5457L26.4993 34.4543C26.4372 32.4156 25.9763 31.1337 25.6011 30.021C25.2511 28.9832 24.9663 28.0759 24.9996 26.5324L22.0004 26.4676ZM23.5007 34.5457C23.5645 36.6399 23.5981 38.9286 23.3678 40.7885C23.2524 41.7209 23.0802 42.4571 22.8602 42.9739C22.6336 43.506 22.4443 43.6064 22.416 43.6184L23.584 46.3816C24.6341 45.9378 25.2499 45.0193 25.6204 44.1491C25.9974 43.2636 26.2142 42.2141 26.3451 41.157C26.6074 39.0379 26.5626 36.5324 26.4993 34.4543L23.5007 34.5457ZM5 2.5V12H8V2.5H5ZM8.5 2.5V12H11.5V2.5H8.5Z" fill="black"/>
</svg>
